<svg xmlns="http://www.w3.org/2000/svg" width="1200" height="420" viewBox="0 0 1200 420">
  <rect width="1200" height="420" fill="#f8fafc"/>
  <text x="40" y="48" font-family="Arial, sans-serif" font-size="30" font-weight="700" fill="#0f172a">Contextual Sequence Learning</text>

  <rect x="60" y="140" width="150" height="70" rx="12" fill="#dbeafe" stroke="#60a5fa" stroke-width="2"/>
  <text x="135" y="183" text-anchor="middle" font-family="Arial, sans-serif" font-size="20" font-weight="700" fill="#1e3a8a">Item t-3</text>

  <rect x="240" y="140" width="150" height="70" rx="12" fill="#dbeafe" stroke="#60a5fa" stroke-width="2"/>
  <text x="315" y="183" text-anchor="middle" font-family="Arial, sans-serif" font-size="20" font-weight="700" fill="#1e3a8a">Item t-2</text>

  <rect x="420" y="140" width="150" height="70" rx="12" fill="#dbeafe" stroke="#60a5fa" stroke-width="2"/>
  <text x="495" y="183" text-anchor="middle" font-family="Arial, sans-serif" font-size="20" font-weight="700" fill="#1e3a8a">Item t-1</text>

  <rect x="240" y="260" width="330" height="78" rx="16" fill="#dcfce7" stroke="#22c55e" stroke-width="2"/>
  <text x="405" y="292" text-anchor="middle" font-family="Arial, sans-serif" font-size="24" font-weight="700" fill="#166534">Sequence Model</text>
  <text x="405" y="320" text-anchor="middle" font-family="Arial, sans-serif" font-size="18" fill="#1e293b">RNN / GRU / Transformer</text>

  <rect x="680" y="120" width="220" height="100" rx="16" fill="#fff7ed" stroke="#fb923c" stroke-width="2"/>
  <text x="790" y="158" text-anchor="middle" font-family="Arial, sans-serif" font-size="24" font-weight="700" fill="#9a3412">Context Features</text>
  <text x="790" y="188" text-anchor="middle" font-family="Arial, sans-serif" font-size="18" fill="#1e293b">time, device, location</text>

  <rect x="970" y="150" width="170" height="70" rx="12" fill="#fee2e2" stroke="#ef4444" stroke-width="2"/>
  <text x="1055" y="192" text-anchor="middle" font-family="Arial, sans-serif" font-size="20" font-weight="700" fill="#991b1b">Next Item</text>

  <line x1="210" y1="175" x2="240" y2="175" stroke="#475569" stroke-width="3"/>
  <polygon points="240,175 228,169 228,181" fill="#475569"/>
  <line x1="390" y1="175" x2="420" y2="175" stroke="#475569" stroke-width="3"/>
  <polygon points="420,175 408,169 408,181" fill="#475569"/>
  <line x1="495" y1="210" x2="495" y2="260" stroke="#475569" stroke-width="3"/>
  <polygon points="495,260 489,248 501,248" fill="#475569"/>
  <line x1="570" y1="299" x2="680" y2="190" stroke="#475569" stroke-width="3"/>
  <polygon points="680,190 667,194 672,181" fill="#475569"/>
  <line x1="900" y1="185" x2="970" y2="185" stroke="#475569" stroke-width="3"/>
  <polygon points="970,185 958,179 958,191" fill="#475569"/>
</svg>
